<!-- Original by Freepik from www.flaticon.com; Modified by Lai Yan Kai -->
<svg id="Layer_1" enable-background="new 0 0 512 512" height="512" viewBox="0 0 512 512" width="512" transform="scale(0.8, 0.85)" xmlns="http://www.w3.org/2000/svg">
<style>
.a {
  stroke-width: 8; 
  stroke: rgb(120, 120, 150); 
  fill:rgb(120,120,150);
}
</style>
<path class="a" d="m392.569 257.2c-1.68-3.351-3.75-6.631-6.5-10.891-6.63-10.27-14.89-23.04-14.89-40.42 0-5.51-4.479-10-10-10-5.51 0-10 4.49-10 10 0 10.2 2.05 20.01 6.271 29.98 3.56 8.43 7.949 15.26 11.47 20.739l.34.53c2.87 4.44 4.49 7.13 5.41 8.98.16.33.29.609.41.88-3.141 3.96-8.49 9.569-13.311 14.54-1.109 1.149-2.42 2.51-3.739 3.89-3.811 3.98-3.681 10.32.3 14.14 1.87 1.79 4.33 2.78 6.92 2.78 2.75 0 5.31-1.1 7.22-3.08 1.17-1.22 2.37-2.47 3.68-3.819l.061-.061c2.68-2.78 6.359-6.59 9.74-10.34 1.899-2.11 3.47-3.96 4.81-5.64 1.55-1.96 2.8-3.681 3.91-5.66.979-1.79 1.39-3.8 1.189-5.83-.34-3.438-1.44-7.038-3.291-10.718z"/>
<path class="a" d="m331.89 362.12c-.77-.19-1.56-.28-2.34-.28-4.64 0-8.63 3.15-9.72 7.67-.891 3.67-2.261 6.88-4.45 10.43-2.26 3.65-5.48 7.65-9.84 12.25-1.84 1.94-2.811 4.48-2.74 7.15s1.18 5.16 3.12 6.99c1.87 1.77 4.31 2.739 6.88 2.739 2.77 0 5.35-1.1 7.26-3.119 5.37-5.671 9.29-10.591 12.311-15.471 3.25-5.21 5.569-10.7 6.91-16.3 1.288-5.369-2.031-10.78-7.391-12.059z"/>
<path class="a" d="m246 235.33c0 5.51 4.49 10 10 10h.02.02c16.35 0 32.26-3.311 47.26-9.82l10.68-4.64c1.92 8.5 4.891 17.06 8.83 25.439 1.641 3.49 5.19 5.75 9.061 5.75 1.47 0 2.899-.319 4.239-.95 2.421-1.14 4.25-3.149 5.16-5.659.9-2.511.78-5.23-.359-7.641-4.08-8.689-6.801-17.149-8.33-25.89-.59-3.32-2.78-6.101-5.87-7.44l-8.61-3.739c-2.55-1.101-5.42-1.101-7.96 0l-14.8 6.42c-12.49 5.409-25.72 8.159-39.34 8.17-5.511 0-10.001 4.48-10.001 10z"/>
<path class="a" d="m378.64 67.84c2.33 0 4.61-.83 6.41-2.33 4.22-3.54 4.79-9.86 1.25-14.09-1.9-2.271-4.7-3.58-7.67-3.58-2.34 0-4.62.83-6.41 2.33-2.05 1.71-3.31 4.12-3.55 6.78-.24 2.659.58 5.25 2.29 7.3 1.899 2.279 4.7 3.59 7.68 3.59z"/>
<path class="a" d="m509.472 139.237c-3.669-4.127-9.991-4.499-14.118-.826-5.327 4.737-13.084 5.927-19.759 3.03l-23.757-10.307c-9.84-4.269-20.719-5.445-31.143-3.563.118-3.146.194-6.27.194-9.382-.04-8.3-2.52-17.14-7.79-27.79-1.71-3.409-5.14-5.529-8.95-5.529-1.559 0-3.059.359-4.469 1.059-4.882 2.424-6.914 8.546-4.471 13.411 3.67 7.27 5.74 14.14 5.68 18.85 0 5.48-.2 10.92-.6 16.66l-5.224 2.266-15.337 6.654c-4.532 1.967-9.688 2.033-14.276.27-.232-.089-.469-.162-.698-.259-9.744-4.149-19.43-8.439-29.147-12.65-6.829-2.96-14.06-4.46-21.5-4.46-7.439 0-14.67 1.5-21.489 4.46-7.821 3.395-15.643 6.79-23.464 10.185-6.811 2.956-13.289 5.643-20.654 2.455l-.415-.18-28.706-12.46c-6.83-2.96-14.06-4.46-21.5-4.46-7.43 0-14.67 1.5-21.49 4.46l-1.74.76c2.52-3.92 4.84-7.62 6.911-10.991 5.895-9.64 12.173-19.676 15.119-30.689 3.02-11.25 6.43-24.01 10.8-33.03 2.21-4.659 4.729-8.388 7.109-10.509 3.822-3.405 9.374-3.376 13.958-1.163 5.962 2.879 10.404 8.187 16.402 11.171 15.021 7.473 31.542 4.062 45.791-3.21 9.989-5.18 20.829-12.63 33.14-22.8 2.77-2.29 5.55-4.68 8.26-7.09 2.88 2.689 5.83 5.519 8.77 8.409 3.876 3.81 10.358 3.713 14.15-.14 3.86-3.939 3.79-10.28-.14-14.14-9.459-9.279-16.119-15.159-16.179-15.209-1.83-1.61-4.171-2.5-6.61-2.5-2.63 0-5.11 1.01-6.98 2.84 0 0-.119.11-.409.39-1.21 1.15-12.15 11.55-25.241 21.111-12.071 8.826-29.061 21.505-44.808 14.809-7.621-3.241-12.885-10.141-20.671-13.04-11.084-4.128-24.141-2.383-32.901 5.77-7.89 7.32-12.36 17.36-15.68 26.22-3.11 8.44-5.51 17.38-7.63 25.28-.34 1.27-.68 2.51-1.01 3.729-.31 1.29-1.73 4.67-3.82 8.62-6.8 13.039-20.281 33.491-31.205 49.48-3.212.341-6.497-.136-9.503-1.439l-29.125-12.636c-13.659-5.926-29.327-5.926-42.985 0l-23.756 10.307c-6.674 2.897-14.432 1.708-19.761-3.032-4.126-3.669-10.447-3.3-14.118.827-3.67 4.127-3.3 10.447.827 14.118 11.123 9.893 27.222 12.419 41.012 6.435l23.755-10.307c8.6-3.73 18.466-3.73 27.065 0l29.125 12.636c1.506.653 3.049 1.194 4.613 1.647-18.731 26.708-36.483 50.708-39.576 54.877-4.103 4.124-19.986 22.36-10.321 49.141 6.166 17.083 24.345 28.837 43.591 41.281 12.309 7.959 25.038 16.188 33.919 25.563 3.38 3.568 6.852 7.136 10.209 10.587 18.036 18.537 36.685 37.705 36.685 53.146 0 11.671 2.357 20.327 4.636 28.699 2.611 9.592 5.312 19.511 5.312 36.217 0 32.926 30.109 46.193 46.029 48.609.5.076 1.001.113 1.5.113 2.447 0 4.83-.899 6.678-2.557 2.59-2.322 63.63-57.112 81.508-75.981 15.762-16.637 31.874-38.553 31.874-74.962 0-10.488 12.171-23.077 23.94-35.252 15.285-15.811 31.09-32.159 31.09-52.442 0-20.866-9.038-34.894-16.301-46.164-4.758-7.384-8.517-13.217-8.517-18.753 0-7.174 1.61-16.63 3.476-27.579 1.512-8.879 3.19-18.774 4.429-29.705 8.037-2.813 16.941-2.528 24.791.878l23.756 10.307c13.794 5.984 29.89 3.459 41.013-6.435 4.128-3.668 4.498-9.99.827-14.116zm-93.472 131.569c0 12.196-12.947 25.589-25.469 38.541-14.533 15.033-29.562 30.578-29.562 49.153 0 23.687-7.646 41.419-26.393 61.206-14.801 15.621-62.507 58.782-76.474 71.368-2.895-.851-6.894-2.306-10.865-4.656-9.325-5.518-13.857-13.087-13.857-23.141 0-19.38-3.195-31.116-6.015-41.471-2.111-7.753-3.934-14.448-3.934-23.445 0-23.565-20.571-44.709-42.35-67.094-3.312-3.403-6.736-6.924-10.025-10.396-10.529-11.113-24.28-20.005-37.579-28.603-15.615-10.097-31.762-20.536-35.638-31.275-5.96-16.514 4.319-26.964 5.74-28.304.552-.475.899-.879 1.339-1.47.26-.349 25.608-34.431 49.191-68.641.332-.131.658-.268.982-.406.044-.019.093-.035.137-.054l11.176-4.852 17.948-7.786c.813-.353 1.641-.662 2.474-.948 7.982-2.738 16.803-2.43 24.589.948l16.962 7.359 12.161 5.279c4.91 2.13 10.1 3.199 15.45 3.199h.03c5.111 0 10.1-.995 14.823-2.954.204-.084.411-.16.614-.248l29.127-12.636c8.6-3.73 18.464-3.73 27.063 0l15.712 6.816 13.41 5.821c4.91 2.13 10.101 3.199 15.45 3.199h.03c4.941 0 9.766-.931 14.348-2.761.364-.145.73-.284 1.091-.44l10.037-4.354c-.893 6.084-1.87 11.825-2.784 17.188-2.017 11.843-3.759 22.071-3.759 30.937 0 11.422 5.95 20.656 11.704 29.586 6.45 10.009 13.116 20.354 13.116 35.335z"/></svg>