<?xml version="1.0" encoding="iso-8859-1"?>
<!-- Original by Those Icons from www.flaticon.com; Modified by Lai Yan Kai -->
<svg version="1.1" id="Layer_1" xmlns="http://www.w3.org/2000/svg" xmlns:xlink="http://www.w3.org/1999/xlink" x="0px" y="0px"
	 viewBox="-10 -10 489.333 489.333" style="enable-background:new 0 0 469.333 469.333;" xml:space="preserve"
   preserveAspectRatio="none" transform="rotate(0), translate(0), scale(0.75, 0.75)">
		<path d="M456.833,172.501L318.167,33.834c-7.953-7.953-18.816-12.392-29.717-12.5c-11.201-0.111-22.444,4.328-30.616,12.5
			L12.5,279.168C4.437,287.23,0,297.939,0,309.334c0,11.396,4.438,22.104,12.594,30.26l95.531,93.24
			c10.01,9.781,23.25,15.167,37.25,15.167h71.771c14.115,0,27.427-5.469,37.49-15.396l202.198-199.771
			c8.063-8.063,12.5-18.771,12.5-30.167C469.333,191.272,464.896,180.564,456.833,172.501z M239.646,417.428
			c-6.042,5.958-14.031,9.24-22.5,9.24h-71.771c-8.406,0-16.344-3.229-22.354-9.104l-95.438-93.146
			c-4.031-4.031-6.25-9.385-6.25-15.083c0-5.698,2.219-11.052,6.25-15.083l125.792-125.792L321.486,336.57L239.646,417.428z
			 M441.792,217.709L336.66,321.578L168.458,153.376L272.917,48.918c4.031-4.031,9.385-6.25,15.083-6.25
			c5.698,0,11.052,2.219,15.083,6.25L441.75,187.584c4.031,4.031,6.25,9.385,6.25,15.083
			C448,208.366,445.781,213.72,441.792,217.709z"
      style="fill:rgb(120,120,150); stroke-width:10; stroke:rgb(120,120,150);"/>
</svg>
